<svg width="717.416992" height="474.416016" xmlns="http://www.w3.org/2000/svg">
 <g>
  <title>background</title>
  <rect fill="none" id="canvas_background" height="476.41602" width="719.41699" y="-1" x="-1"/>
 </g>

 <g>
  <title>Layer 1</title>
  <ellipse fill="#fff" stroke="null" stroke-width="1.5" cx="354.20852" cy="243.15799" id="svg_18" rx="214.99997" ry="214.99999"/>
  <g stroke="null" id="svg_1">
   <path stroke="null" id="svg_2" opacity="0.2" class="color color-2" fill="#ff4700" d="m168.73199,136.354l371.953,0c-37.12299,-64.17401 -106.50491,-107.35398 -185.97598,-107.35398c-79.47101,0 -148.853,43.18 -185.97701,107.35398l-0.00002,0z"/>
  </g>
  <g id="svg_3">
   <path id="svg_4" opacity="0.2" class="color color-1" fill="#ff1ad9" d="m462.06201,57.731l0,371.95299c64.17499,-37.12399 107.354,-106.50598 107.354,-185.97876c0.00098,-79.46901 -43.17902,-148.85001 -107.354,-185.97402l0,-0.00002l0,-0.00001l0,-0.00002l0,-0.00001l0,-0.00002l0,-0.00001l0,-0.00002l0,-0.00001l0,-0.00002l0,-0.00001l0,-0.00002l0,-0.00001l0,-0.00002l0,-0.00001z"/>
  </g>
  <g id="svg_5">
   <path id="svg_6" opacity="0.4" class="color color-2" fill="#ff4700" d="m140,243.70799l429.41602,0c0,-39.10701 -10.46002,-75.771 -28.729,-107.35399l-371.95502,0c-18.271,31.582 -28.73198,68.24501 -28.73198,107.35399l-0.00003,0l0.00003,0l-0.00002,0z"/>
  </g>
  <g stroke="null" id="svg_7">
   <path stroke="null" id="svg_8" opacity="0.4" class="color color-1" fill="#ff1ad9" d="m354.70901,29l0,429.41599c39.10898,0 75.77197,-10.461 107.35397,-28.729l0,-371.95599c-31.582,-18.27 -68.245,-28.731 -107.35397,-28.731l0,0.00001l0,-0.00001l0,0.00001z"/>
  </g>
  <g id="svg_9">
   <path id="svg_10" opacity="0.5" class="color color-2" fill="#ff4700" d="m168.73199,351.06201l371.953,0c18.271,-31.582 28.729,-68.245 28.729,-107.35399l-429.414,0c0,39.10896 10.461,75.77199 28.73199,107.35399z"/>
  </g>
  <g id="svg_11">
   <path id="svg_12" opacity="0.5" class="color color-1" fill="#ff1ad9" d="m247.354,57.731l0,371.95299c31.582,18.271 68.245,28.729 107.354,28.729l0,-429.41298c-39.108,0 -75.771,10.461 -107.354,28.731l0,-0.00001z"/>
  </g>
  <g id="svg_13">
   <path id="svg_14" opacity="0.6" class="color color-2" fill="#ff4700" d="m540.68597,351.06201l-371.95401,0c37.12401,64.17401 106.50601,107.354 185.97702,107.354c79.47098,-0.00003 148.853,-43.18002 185.97699,-107.354l0,0z"/>
  </g>
  <g id="svg_15">
   <path id="svg_16" opacity="0.6" class="color color-1" fill="#ff1ad9" d="m247.354,429.685l0,-371.95401c-64.172,37.124 -107.35399,106.50599 -107.35399,185.97699c0,79.47098 43.18199,148.85303 107.35399,185.97699l0,0l0,0.00003z"/>
  </g>
  <rect id="svg_17" height="288.99999" width="288.00002" y="97.58403" x="211.58399" stroke-width="5" stroke="#ffffff" fill="none"/>
  <line id="svg_21" y2="113.58401" x2="403.23139" y1="113.58401" x1="222.58401" stroke-linecap="null" stroke-linejoin="null" stroke-dasharray="null" stroke-width="9" stroke="#ffffff" fill="none"/>
  <line id="svg_23" y2="130.58401" x2="497.58401" y1="131.58401" x1="213.58401" stroke-linecap="null" stroke-linejoin="null" stroke-dasharray="null" stroke-width="5" stroke="#ffffff" fill="none"/>
  <circle id="svg_24" r="4.29562" cy="114.58402" cx="424.08401" stroke-linecap="null" stroke-linejoin="null" stroke-dasharray="null" stroke-width="9" stroke="#ffffff" fill="none"/>
  <circle id="svg_25" r="4.29562" cy="114.58402" cx="448.584" stroke-linecap="null" stroke-linejoin="null" stroke-dasharray="null" stroke-width="9" stroke="#ffffff" fill="none"/>
  <circle id="svg_26" r="4.29562" cy="114.58402" cx="473.58401" stroke-linecap="null" stroke-linejoin="null" stroke-dasharray="null" stroke-width="9" stroke="#ffffff" fill="none"/>
  <text xml:space="preserve" text-anchor="start" font-family="Arvo, sans-serif" font-size="250" id="svg_29" y="294" x="278.70849" fill-opacity="null" stroke-opacity="null" stroke-width="0" stroke="#ffffff" fill="#ffffff" font-weight="bold">g</text>
 </g>
</svg>